<?xml version="1.0" standalone="no"?>
<!DOCTYPE svg PUBLIC "-//W3C//DTD SVG 20010904//EN"
 "http://www.w3.org/TR/2001/REC-SVG-20010904/DTD/svg10.dtd">
<svg version="1.0" xmlns="http://www.w3.org/2000/svg"
 width="512.000000pt" height="512.000000pt" viewBox="0 0 512.000000 512.000000"
 preserveAspectRatio="xMidYMid meet">
<metadata>
Created by potrace 1.11, written by Peter Selinger 2001-2013
</metadata>
<g transform="translate(0.000000,512.000000) scale(0.100000,-0.100000)"
fill="#000000" stroke="none">
<path d="M2400 4191 c-110 -35 -165 -69 -251 -155 -119 -119 -164 -216 -176
-378 -18 -264 162 -518 422 -594 76 -22 205 -26 285 -9 141 29 296 138 369
259 58 97 83 179 86 291 7 185 -40 297 -180 434 -94 93 -144 123 -251 154 -72
21 -234 20 -304 -2z"/>
<path d="M1455 3142 c-43 -3 -168 -33 -180 -42 -5 -4 -21 -11 -35 -15 -58 -18
-183 -126 -236 -205 -64 -96 -95 -198 -96 -316 0 -172 52 -297 176 -419 124
-122 241 -170 416 -168 317 2 564 247 574 568 9 295 -223 562 -515 592 -41 5
-87 7 -104 5z"/>
<path d="M3555 3142 c-114 -12 -254 -81 -346 -172 -177 -174 -220 -444 -108
-675 39 -78 119 -170 192 -219 227 -150 526 -127 722 55 84 79 127 144 161
245 48 144 39 290 -26 429 -31 67 -52 94 -126 166 -94 91 -170 136 -269 158
-53 12 -150 18 -200 13z"/>
<path d="M2435 2065 c-130 -31 -221 -82 -304 -170 -128 -137 -187 -338 -150
-517 22 -110 72 -201 159 -288 236 -239 584 -243 821 -10 127 125 182 262 175
435 -5 117 -9 134 -58 235 -69 145 -206 260 -363 305 -72 21 -212 26 -280 10z"/>
</g>
</svg>
